<?xml version="1.0" encoding="iso-8859-1"?>
<!-- Generator: Adobe Illustrator 17.1.0, SVG Export Plug-In . SVG Version: 6.00 Build 0)  -->
<!DOCTYPE svg PUBLIC "-//W3C//DTD SVG 1.1//EN" "http://www.w3.org/Graphics/SVG/1.1/DTD/svg11.dtd">
<svg version="1.1" id="Capa_1" xmlns="http://www.w3.org/2000/svg" xmlns:xlink="http://www.w3.org/1999/xlink" x="0px" y="0px"
	 viewBox="0 0 343.814 343.814" style="enable-background:new 0 0 343.814 343.814;" xml:space="preserve">
<path id="XMLID_62_" d="M171.904,124.522c-39.294,0-71.262,31.969-71.262,71.263s31.968,71.263,71.262,71.263
	c10.016,0,19.706-2.039,28.801-6.063c5.556-2.457,8.068-8.953,5.611-14.509s-8.953-8.067-14.509-5.61
	c-6.275,2.774-12.971,4.182-19.902,4.182c-27.163,0-49.262-22.1-49.262-49.263s22.099-49.263,49.262-49.263
	c27.143,0,48.783,21.723,49.265,49.454c0.058,3.325-0.589,7.715-4.001,9.737c-2.398,1.424-5.8,1.432-8.272,0.023
	c-2.204-1.256-3.275-3.347-3.275-6.392v-16.457c0-6.075-4.925-11-11-11c-0.521,0-1.033,0.036-1.535,0.106
	c-5.792-5.5-13.617-8.88-22.216-8.88c-17.8,0-32.282,14.481-32.282,32.282s14.481,32.282,32.282,32.282
	c7.938,0,15.217-2.881,20.845-7.65c1.82,1.854,3.925,3.476,6.291,4.823c9.3,5.298,21.226,5.214,30.382-0.214
	c9.613-5.7,14.999-16.286,14.778-29.045c-0.331-19.012-7.811-36.829-21.062-50.169C208.716,131.945,190.888,124.522,171.904,124.522
	z M170.871,205.68c-5.669,0-10.282-4.612-10.282-10.282s4.612-10.282,10.282-10.282c5.67,0,10.284,4.612,10.284,10.282
	S176.542,205.68,170.871,205.68z M309.878,58.113H166.075l-15.468-37.575c-1.697-4.122-5.714-6.813-10.172-6.813H33.936
	C15.224,13.726,0,28.949,0,47.661v248.492c0,18.712,15.224,33.936,33.936,33.936h275.942c18.712,0,33.936-15.224,33.936-33.936
	V92.049C343.814,73.337,328.591,58.113,309.878,58.113z M321.814,296.153c0,6.581-5.354,11.936-11.936,11.936H33.936
	c-6.582,0-11.936-5.354-11.936-11.936V47.661c0-6.581,5.354-11.936,11.936-11.936h99.131l15.468,37.575
	c1.697,4.122,5.714,6.813,10.172,6.813h151.171c6.582,0,11.936,5.354,11.936,11.936V296.153z"/>
<g>
</g>
<g>
</g>
<g>
</g>
<g>
</g>
<g>
</g>
<g>
</g>
<g>
</g>
<g>
</g>
<g>
</g>
<g>
</g>
<g>
</g>
<g>
</g>
<g>
</g>
<g>
</g>
<g>
</g>
</svg>
