<?xml version="1.0" encoding="iso-8859-1"?>
<!-- Generator: Adobe Illustrator 17.1.0, SVG Export Plug-In . SVG Version: 6.00 Build 0)  -->
<!DOCTYPE svg PUBLIC "-//W3C//DTD SVG 1.1//EN" "http://www.w3.org/Graphics/SVG/1.1/DTD/svg11.dtd">
<svg version="1.1" id="Capa_1" xmlns="http://www.w3.org/2000/svg" xmlns:xlink="http://www.w3.org/1999/xlink" x="0px" y="0px"
	 viewBox="0 0 333.979 333.979" style="enable-background:new 0 0 333.979 333.979;" xml:space="preserve">
<path id="XMLID_625_" d="M286.645,88.674l-28.178,42.782c-2.035,3.089-5.487,4.949-9.187,4.949c-3.7,0-7.151-1.86-9.187-4.95
	l-16.017-24.318c-3.342-5.074-1.938-11.896,3.136-15.237c5.077-3.343,11.896-1.938,15.237,3.137l6.83,10.37l18.991-28.834
	c3.343-5.073,10.164-6.476,15.237-3.136C288.582,76.778,289.986,83.6,286.645,88.674z M284.271,202.569c-6.075,0-11,4.925-11,11
	v73.014H22V92.331l35.806,52.076c2.052,2.984,5.442,4.768,9.064,4.768h80.454c6.075,0,11-4.925,11-11s-4.925-11-11-11H72.656
	L40.808,80.855h106.516c6.075,0,11-4.925,11-11s-4.925-11-11-11H20.034c-0.099-0.002-0.198-0.002-0.296,0H11
	c-6.075,0-11,4.925-11,11v227.728c0,6.075,4.925,11,11,11h273.271c6.075,0,11-4.925,11-11v-84.014
	C295.271,207.494,290.347,202.569,284.271,202.569z M333.979,104.016c0,43.352-35.268,78.62-78.617,78.62
	c-43.352,0-78.62-35.269-78.62-78.62s35.269-78.62,78.62-78.62C298.711,25.396,333.979,60.664,333.979,104.016z M311.979,104.016
	c0-31.221-25.398-56.62-56.617-56.62c-31.221,0-56.62,25.399-56.62,56.62s25.399,56.62,56.62,56.62
	C286.58,160.636,311.979,135.236,311.979,104.016z"/>
<g>
</g>
<g>
</g>
<g>
</g>
<g>
</g>
<g>
</g>
<g>
</g>
<g>
</g>
<g>
</g>
<g>
</g>
<g>
</g>
<g>
</g>
<g>
</g>
<g>
</g>
<g>
</g>
<g>
</g>
</svg>
